<svg height="512" viewBox="0 0 60 60" width="512" xmlns="http://www.w3.org/2000/svg"><g id="022---Acupuncture" fill="none"><g id="Layer_3" transform="translate(0 1)"><path id="Shape" d="m58.44 45.55c-.1437464.8594263-.8273776 1.5268769-1.69 1.65l-4.16.59c-.8774786.1242792-1.732107-.3437315-2.1-1.15-1.4781101-3.2321566-2.7571644-6.5516864-3.83-9.94h-33.32c-1.0694336 3.3895054-2.3485677 6.7092425-3.83 9.94-.36789298.8062685-1.22252138 1.2742792-2.1 1.15l-4.16-.59c-.86262237-.1231231-1.5462536-.7905737-1.69-1.65-1.27741165-6.5975678-.47370967-13.4290347 2.3-19.55l-1-4c-1-4 0-13 10-16 7.08-2.12 9.65-4.25 10.54-5.31.3864186-.44590636.9500163-.69842743 1.54-.69h10.12c.5899837-.00842743 1.1535814.24409364 1.54.69.89 1.06 3.46 3.19 10.54 5.31 10 3 11 12 10 16l-1 4c2.7737097 6.1209653 3.5774117 12.9524322 2.3 19.55z" fill="#e8edfc"/><path id="Shape" d="m58.44 45.55c-.1437464.8594263-.8273776 1.5268769-1.69 1.65l-4.16.59c-.4382282.062762-.8848958-.0216477-1.27-.24l2.43-.35c.8626224-.1231231 1.5462536-.7905737 1.69-1.65 1.2774117-6.5975678.4737097-13.4290347-2.3-19.55l1-4c1-4 0-13-10-16-7.08-2.12-9.65-4.25-10.54-5.31-.3864186-.44590636-.9500163-.69842743-1.54-.69020441l3 .00020441c.5899837-.00842743 1.1535814.24409364 1.54.69.89 1.06 3.46 3.19 10.54 5.31 10 3 11 12 10 16l-1 4c2.7737097 6.1209653 3.5774117 12.9524322 2.3 19.55z" fill="#cad9fc"/><path id="Shape" d="m44.14 13s5 5 4 14-2 10-2 16c0 5.75.23 6 .91 13.91.0253441.280432-.0687143.5585539-.2590676.7660389-.1903532.2074851-.4593598.325104-.7409324.3239611h-32.11c-.2815726.0011429-.5505792-.116476-.7409324-.3239611-.1903533-.207485-.2844117-.4856069-.2590676-.7660389.68-7.94.91-8.16.91-13.91 0-6-1-7-2-16s4-14 4-14z" fill="#e8edfc"/><path id="Shape" d="m48.14 27c-1 9-2 10-2 16 0 5.75.23 6 .91 13.91.0253441.280432-.0687143.5585539-.2590676.7660389-.1903532.2074851-.4593598.325104-.7409324.3239611h-3c.2854235.0017327.5579844-.1185847.7490317-.3306471.1910473-.2120625.2823707-.4956569.2509683-.7793529-.68-8.12-.91-8.35-.91-14.22 0-6.14 1-7.16 2-16.36.6309827-4.6721011-.4873501-9.41255-3.14-13.31h2.19s4.95 5 3.95 14z" fill="#cad9fc"/><g fill="#a4c2f7"><circle id="Oval" cx="7" cy="33.03" r="2"/><circle id="Oval" cx="53" cy="40.01" r="2.01"/><circle id="Oval" cx="52" cy="18" r="2"/><circle id="Oval" cx="6" cy="54" r="2"/></g></g><path id="Shape" d="m3.25 47.2 4.16.59c.43948988.0653394.88806457-.0229627 1.27-.25l-2.43-.34c-.86262237-.1231231-1.5462536-.7905737-1.69-1.65-1.27741165-6.5975678-.47370967-13.4290347 2.3-19.55l-1-4c-1-4 0-13 10-16 7.08-2.12 9.65-4.25 10.54-5.31.3864186-.44590636.9500163-.69842743 1.54-.69020441l-3 .00020441c-.5899837-.00842743-1.1535814.24409364-1.54.69-.89 1.06-3.46 3.19-10.54 5.31-10 3-11 12-10 16l1 4c-2.77370967 6.1209653-3.57741165 12.9524322-2.3 19.55.1437464.8594263.82737763 1.5268769 1.69 1.65z" fill="#fff" transform="translate(0 1)"/><g id="Layer_2" transform="translate(-1)"><path id="Shape" d="m3.6 14.78 1.86.73c-.9173457 2.3023769-1.13645732 4.8238995-.63 7.25l-1.94.48c-.60655824-2.8280729-.35944203-5.7725843.71-8.46z" fill="#fff"/><g fill="#428dff"><path id="Shape" d="m3.64 20c.55228475 0 1-.4477153 1-1s-.44771525-1-1-1-1 .4477153-1 1 .44771525 1 1 1z"/><path id="Shape" d="m1.57 46.73c.22209676 1.2848537 1.24869872 2.2791217 2.54 2.46l4.16.59c1.31498574.1872141 2.5965418-.5125562 3.15-1.72.92-2 1.74-4 2.4-5.81.1153355 3.3376516-.0049632 6.6792818-.36 10l-4 1.1c-.84111729-1.196575-2.42253737-1.6121812-3.74327559-.9837542-1.32073823.628427-1.99579001 2.1176964-1.59787073 3.5251516s1.75281332 2.3228132 3.20708068 2.1666836c1.45426736-.1561295 2.58397876-1.3382336 2.67406564-2.798081l3.28-.9c-.09 1-.19 2.1-.31 3.46-.0506881.5608639.1374286 1.1171078.5181351 1.5320779s.9187198.6502079 1.4818649.6479221h32.09c.5631451.0022858 1.1011584-.232952 1.4818649-.6479221s.5688232-.971214.5181351-1.5320779c-.52-6-1.1-10-.87-15.57.66 1.79 1.48 3.82 2.4 5.81.5534582 1.2074438 1.8350143 1.9072141 3.15 1.72l4.16-.59c1.2913013-.1808783 2.3179032-1.1751463 2.54-2.46 1.2751657-6.68775.4941949-13.6049198-2.24-19.84l.91-3.65c1.26-5-.53-14.15-10.68-17.2-7.07-2.12-9.4-4.2-10.07-5-.5838715-.65318105-1.4240952-1.01849569-2.3-1h-10.12c-.8839161-.00593403-1.7254615.37824973-2.3 1.05-.67.79-3 2.87-10.07 5-4.52751858 1.16875569-8.23568055 4.4096893-10 8.74-.09954096.2529349-.09182932.5354926.02135954.7826216.11318885.247129.32210121.4375337.57864046.5273784.50762086.1767095 1.06412856-.0794607 1.26-.58.70662602-1.8572863 1.88127626-3.5004188 3.41-4.77 1.5638403-1.27276197 3.3655724-2.22122096 5.3-2.79 7-2.09 9.83-4.21 11-5.62.1929791-.2442875.488721-.38476488.8-.38h10.12c.2941878-.00546776.5758533.11890406.77.34 1.17 1.41 4.08 3.53 11.03 5.66 9.88 3 10 11.9 9.31 14.8-1.09 4.33-1.17 4.2-.91 4.67 2.6532845 5.9255639 3.4212898 12.5234275 2.2 18.9-.0664742.4371225-.4121215.7787033-.85.84l-4.16.59c-.4399756.0613496-.8676791-.1749057-1.05-.58-.91-1.94-1.7-3.92-2.35-5.67l1 .12c.27774 1.2497402 1.3179477 2.1855255 2.59 2.33 1.5166881.1897495 2.9335418-.7911585 3.2897975-2.2775735.3562556-1.4864149-.4620075-3.0030232-1.8999277-3.5214177-1.4379203-.5183945-3.0356913.1271928-3.7098698 1.4989912l-2-.24c-.24-.69-.44-1.3-.61-1.81 1.36-7.83 2.48-12.89.5-18.58l.83.21c.1244359 1.4564323 1.2804455 2.6111703 2.7370139 2.7340031 1.4565683.1228328 2.7896354-.8220007 3.156222-2.2370249s-.340034-2.8882742-1.6730227-3.4881246c-1.3329887-.5998503-2.904264-.1516628-3.7202132 1.0611464l-2.32-.6c-.6144004-1.2564156-1.4057874-2.4182391-2.35-3.45-.3900375-.3877236-1.0199625-.3877236-1.41 0-.1893127.1877666-.2957983.4433625-.2957983.71s.1064856.5222334.2957983.71c.3705231.4176689.7050491.8659339 1 1.34l-11.83-3.06c-.5357162-.1380712-1.0819288.1842838-1.22.72-.1380711.5357162.1842838 1.0819288.72 1.22l13.66 3.48c1.2862947 2.9692967 1.7558214 6.2283646 1.36 9.44-.67 6-1.31 8.27-1.71 11.22l-9.2-1.08c-.5522847-.0662742-1.0537258.3277153-1.12.88-.0662741.5522847.3277153 1.0537258.88 1.12l9.24 1.11c-.41 5.78.41 12.19.82 16.9h-32.06c.14-1.73.27-3.08.38-4.2l13.89-3.81c.5522847-.1491169.8791169-.7177153.73-1.27s-.7177153-.8791169-1.27-.73l-13.2 3.63c.6834744-5.9506003.3930036-11.9728024-.86-17.83l10.24-1.8c.5522847-.0994113.9194113-.6277153.82-1.18s-.6277153-.9194113-1.18-.82l-10.19 1.86c-.17-1.13-.34-2.43-.51-4-.93-8.37 3.67-13.14 3.71-13.18.1893127-.1877666.2957983-.4433625.2957983-.71s-.1064856-.5222334-.2957983-.71c-.3900375-.3877236-1.0199625-.3877236-1.41 0-.22.22-5.33 5.45-4.29 14.82.18 1.6.36 2.94.53 4.11l-1.79.33c-.62757928-1.1025048-1.8808016-1.6910788-3.13-1.47-1.64304713.2954723-2.73547234 1.8669529-2.44 3.51s1.86695287 2.7354723 3.51 2.44c1.26940179-.2160492 2.2593528-1.2180728 2.46-2.49l1.75-.31c.23 1.39.39 2.18.61 3.44-1.0639854 3.2644474-2.3194968 6.46333-3.76 9.58-.17649479.3859375-.57736494.6184422-1 .58l-4.16-.59c-.4378785-.0612967-.78352583-.4028775-.85-.84-1.2096111-6.3769959-.4420153-12.9713416 2.2-18.9.24-.46.18-.34-.91-4.71-.05555112-.2762548-.22507724-.5162513-.4668735-.6609482-.24179625-.144697-.53341897-.1806636-.8031265-.0990518-.53139681.1373917-.85273675.6774214-.72 1.21l.91 3.65c-2.73693925 6.2450636-3.51452641 13.1736093-2.23 19.87zm6.29 8.78c-.24284655.3738191-.70380009.5417565-1.13019941.4117612s-.71526423-.526528-.70825999-.9722478c.00700424-.4457197.30818602-.8329802.7384594-.9495134.40011721-.1083658.82561014.0413627 1.06969004.3764179.24407989.3350551.25613635.7859625.03030996 1.1335821zm45.52-15.28c.3558575-.2790787.8547242-.2845936 1.2166644-.0134501.3619401.2711436.496858.7514513.3290454 1.1714018s-.5965831.6750078-1.0457098.6220483c-.4022153-.0474279-.736108-.3327761-.8456336-.7226872s.0269455-.807384.3456336-1.0573128zm-1.38-21.48c.0585503-.2697892.2260278-.5033711.4627554-.6454077.2367276-.1420365.5216422-.1798899.7872446-.1045923.5341444.1386349.8550211.6837532.7169917 1.2180543s-.6827837.8557955-1.2172409.7183717c-.5344573-.1374238-.8565688-.6818134-.7197508-1.216426zm-43.18 15.85c-.25651444.3741374-.732735.5287429-1.16009811.3766272-.42736312-.1521157-.69879977-.5728425-.66123384-1.0249124.03756593-.45207.3747229-.8222241.82133195-.9017148.39672636-.0706122.79707367.103793 1.01552987.4424001.21845621.3386071.21233394.7752507-.01552987 1.1075999z"/></g></g></g></svg>