<svg height="512" viewBox="0 0 61 60" width="512" xmlns="http://www.w3.org/2000/svg"><g id="037---Healthy-Heart" fill="none"><g id="Icons" transform="translate(2 1)"><path id="Shape" d="m58 44c.0037409 7.1723438-5.4136093 13.1874559-12.5472337 13.9317221s-13.6759303-4.0230695-15.1527663-11.0417221c-.201742-.9500416-.3023028-1.9187773-.3-2.89 0-7.7319865 6.2680135-14 14-14s14 6.2680135 14 14z" fill="#fff"/><path id="Shape" d="m44 30c-.501124.000841-1.0018425.0285475-1.5.083 7.1005043.7766351 12.477794 6.7741488 12.477794 13.917s-5.3772897 13.1403649-12.477794 13.917c5.1556805.5638557 10.2006402-1.7687254 13.1106632-6.0618293s3.2082338-9.8432051.7749798-14.423407-7.1992273-7.4399313-12.385643-7.4317637z" fill="#e8edfc"/><path id="Shape" d="m30 44c-.0023028.9712227.098258 1.9399584.3 2.89-.4833806.0717967-.9713186.1085591-1.46.11-.7301263.0031542-1.4582092-.0773711-2.17-.24l-17.32-3.79c-5.47253159-1.2082994-9.36426446-6.0656815-9.35-11.67v-9.55c0-1.95 1.5-3.65 3-4.75v-15c0 1.1 1.34 2 3 2s3-.9 3-2v8.41l2.52-9.05c-.15 1.01.93 2.18 2.54 2.7 1.71.54 3.37.13 3.7-.92l-.93 3h-.01l-.76 2.47c.5527996.67942665 1.2991541 1.17467125 2.14 1.42 1.71.54 3.37.13 3.7-.92l-1.38 5.09c8.7306758 1.7341091 15.6716764 8.3594326 17.81 17-5.0642248 2.2432174-8.3298285 7.2611917-8.33 12.8z" fill="#e8edfc"/><g fill="#cad9fc"><ellipse id="Oval" cx="6" cy="2" rx="3" ry="2"/><path id="Shape" d="m17.76 3.14c-.33 1.05-1.99 1.46-3.7.92-1.61-.52-2.69-1.69-2.54-2.7l.05-.19c.34-1.06 1.99-1.47 3.7-.92s2.83 1.84 2.49 2.89z"/><path id="Shape" d="m21.9 9.11c-.33 1.05-1.99 1.46-3.7.92-.8408459-.24532875-1.5872004-.74057335-2.14-1.42l.76-2.47h.01c.8508843-.24139799 1.7556362-.21345198 2.59.08 1.71.54 2.82 1.84 2.48 2.89z"/></g><path id="Shape" d="m44 39.667c-.8354945-1.62606-2.504902-2.6535951-4.333-2.667-2.667 0-4.667 1.667-4.667 5s2 4.667 3.333 6 5.667 5 5.667 5 4.333-3.667 5.667-5 3.333-2.667 3.333-6-2-5-4.667-5c-1.828098.0134049-3.4975055 1.04094-4.333 2.667z" fill="#e8edfc"/></g><g id="Layer_4" fill="#fff" transform="translate(0 1)"><path id="Shape" d="m4.33 2.43v11.9c.0318119 1.3476134-.38697158 2.6673092-1.19 3.75-.81253702 1.0506422-1.25231173 2.3418208-1.25 3.67v9.55c-.01004828 5.6129659 3.89617781 10.4728442 9.38 11.67 18.62 4.065 18.451 4.289 21.014 3.91-.554-.086 1.251.3-18.014-3.91-5.48318636-1.1981826-9.38890868-6.0574342-9.38-11.67v-9.55c-.00231173-1.3281792.43746298-2.6193578 1.25-3.67.80302842-1.0826908 1.2218119-2.4023866 1.19-3.75v-11.9"/><path id="Shape" d="m7.334 2.43c0-.622.718-1.159 1.76-1.43-.48980708-.12738301-.99390013-.19157086-1.5-.191-1.8 0-3.26.729-3.26 1.621"/><path id="Shape" d="m3 23.928h-2v-2c-.091-2.319 1.534-4.333 3.409-5.734l1.182 1.612c-.96011375.6652824-1.74231666 1.5559911-2.278 2.594-.413.965-.313 1.253-.313 3.528z"/></g><g id="Layer_3" fill="#428dff"><path id="Shape" d="m46 38.931c-3.161-3.463-10-2.381-10 4.069.0121461 2.4193405 1.1430053 4.6969346 3.063 6.169.658.615 1.839 1.847 6.291 5.594.3728657.3155501.9191343.3155501 1.292 0 4.369-3.677 5.742-5.081 6.291-5.594 1.9199947-1.4720654 3.0508539-3.7496595 3.063-6.169 0-6.455-6.844-7.527-10-4.069zm5.57 8.777c-.914.858-1.234 1.278-5.57 4.979-4.313-3.681-4.679-4.142-5.57-4.979-1.195-1.116-2.43-2.271-2.43-4.708 0-2.542 1.337-4 3.667-4 1.4482392.0155107 2.7700527.8278993 3.438 2.113.187968.3152706.5279475.5083906.895.5083906s.707032-.19312.895-.5083906c.6679473-1.2851007 1.9897608-2.0974893 3.438-2.113 2.33 0 3.667 1.458 3.667 4 0 2.437-1.235 3.592-2.43 4.708z"/><path id="Shape" d="m40.99 30.879c-2.4503344-8.126299-8.9947102-14.3645186-17.229-16.423 1.279-4.712 1.079-3.978 1.113-4.144.6-2.223-2.1-4.171-4.641-4.315l.487-1.559c.566-1.784-1.155-3.51-3.142-4.138-1.94-.619-4.376-.273-4.96 1.566-.745 2.343-.618 3.004-.618 1.134 0-1.682-1.757-3-4-3s-4 1.318-4 3v15c0 .5522847.44771525 1 1 1s1-.4477153 1-1v-12.4c1.27866361.53997396 2.72133639.53997396 4 0 0 10.174.257 11.868-.761 14.916-.17507427.5246705.10832949 1.0919257.633 1.267.5246705.1750743 1.0919257-.1083295 1.267-.633 1.038-3.109.864-5 .864-9.6l1.828-6.573c1.188039.96114536 2.7011232 1.42681995 4.224 1.3l-2.01 6.423c-.065.214-.045-.014-.045 4.3 0 .5522847.4477153 1 1 1s1-.4477153 1-1v-3.848l.56-1.792c.9359652.5886598 2.0183172.9029022 3.124.907.2065676-.0089703.4123342-.0313507.616-.067l-.5 1.857c-.05-.008-.1-.021-.15-.028-.5389486-.066537-1.0324991.309206-1.1118053.8464241s.2846202 1.0395451.8198053 1.1315759c8.4705526 1.3200254 15.407141 7.4320089 17.783 15.669-5.6428358 2.8920607-8.8466522 9.0299363-7.993 15.313-1.6.062-.82.11-19.585-4-1.98602758-.4404253-3.80665256-1.4344706-5.251-2.867l5.05-3.373c4.1507089-2.7501281 6.6440532-7.3998884 6.638-12.379v-3.37c0-.5522847-.4477153-1-1-1s-1 .4477153-1 1v3.37c.0065095 4.3110128-2.1519883 8.3372535-5.746 10.718l-5.264 3.512c-.5174455-.7323239-.93919414-1.5277654-1.255-2.367-.935-2.51-.735-3.519-.735-11.305 0-.5522847-.44771525-1-1-1s-1 .4477153-1 1c0 7.536-.235 9.072.868 12.025.5135415 1.2793721 1.20721518 2.4788214 2.06 3.562.05895222.0861944.13157288.1621927.215.225 1.81028216 2.1247352 4.26392838 3.6013465 6.989 4.206 17.43 3.687 17.776 4.205 20.419 4.027 1.6310734 5.9444726 6.734503 10.284723 12.8637501 10.9400739 6.1292472.6553509 12.0349529-2.5077816 14.8859745-7.9730201 2.8510216-5.4652384 2.0662194-12.1185723-1.9781795-16.7704529-4.044399-4.6518805-10.5240019-6.3540886-16.3325451-4.2906009zm-32.99-26.879c-1.221 0-2-.592-2-1s.779-1 2-1 2 .592 2 1-.779 1-2 1zm8.363.106c-.5946259-.1748831-1.1320099-.50483755-1.557-.956-.48-.558-.373-.9.341-1.072.6081342-.12067732 1.2373541-.07859134 1.824.122 1.33.425 1.948 1.3 1.841 1.637s-1.12.693-2.449.269zm2.823 5.248.424-1.36c1.978-.2 4.089 1.539 3.063 2.075-1.207097.3931711-2.5320427.1214946-3.487-.715zm26.814 48.646c-7.1797017 0-13-5.8202983-13-13s5.8202983-13 13-13 13 5.8202983 13 13c-.008266 7.1762751-5.8237249 12.991734-13 13z"/><path id="Shape" d="m49.219 42.375-3.3 4.128-1.21-1.21c-.3923789-.3789722-1.0160848-.3735524-1.4018186.0121814s-.3911536 1.0094397-.0121814 1.4018186c2.178 2.18 2.166 2.293 2.705 2.293.3037783.000114.5911385-.1378631.781-.375l4-5c.345178-.4313344.2753344-1.060822-.156-1.406s-1.060822-.2753344-1.406.156z"/><path id="Shape" d="m2.406 21.956c-.55228475 0-1-.4477153-1-1s.44771525-1 1-1 1 .4477153 1 1-.44771525 1-1 1z"/></g></g></svg>