<?xml version="1.0" encoding="iso-8859-1"?>
<!-- Generator: Adobe Illustrator 19.0.0, SVG Export Plug-In . SVG Version: 6.00 Build 0)  -->
<svg version="1.1" id="Capa_1" xmlns="http://www.w3.org/2000/svg" xmlns:xlink="http://www.w3.org/1999/xlink" x="0px" y="0px"
	 viewBox="0 0 512 512" style="enable-background:new 0 0 512 512;" xml:space="preserve">
<g>
	<g transform="translate(1 1)">
		<path style="fill:#E3E7F2;" d="M434.2,73.329c-67.925,0-92.501,48.555-99.755,77.056c-12.933,0.72-25.522,4.429-36.779,10.837
			V30.662c-13.457,5.835-28.001,8.743-42.667,8.533c-14.666,0.21-29.209-2.699-42.667-8.533v130.56
			c-11.257-6.408-23.846-10.118-36.779-10.837c-7.253-28.501-31.829-77.056-99.755-77.056c-42.667,0-68.267,25.6-68.267,68.267
			c0,59.733,24.576,94.72,51.2,128c9.053,11.242,17.512,22.948,25.344,35.072c17.152,26.709,25.856,49.237,25.856,67.328
			c0,25.6,0,93.867,59.733,93.867S255,406.129,255,397.595c0,8.533,25.6,68.267,85.333,68.267s59.733-68.267,59.733-93.867
			c0-18.091,8.704-40.619,25.856-67.328c7.832-12.124,16.291-23.83,25.344-35.072c26.624-33.28,51.2-68.267,51.2-128
			C502.467,98.929,476.867,73.329,434.2,73.329z M178.2,423.195c-17.067,0-17.067-51.2-17.067-51.2c25.6,0,51.2,8.533,51.2,25.6
			C212.333,406.129,203.8,423.195,178.2,423.195z M331.8,423.195c-25.6,0-34.133-17.067-34.133-25.6c0-17.067,25.6-25.6,51.2-25.6
			C348.867,371.995,348.867,423.195,331.8,423.195z M297.667,346.395c-14.666-0.21-29.209,2.699-42.667,8.533
			c-13.457-5.835-28.001-8.743-42.667-8.533c-25.6,0-68.267-25.6-68.267-76.8l26.283-13.141
			c4.949,6.656,10.411,13.739,16.384,21.675c25.6,34.133,25.6,68.267,68.267,68.267s42.667-34.133,68.267-68.267
			c5.973-7.936,11.435-15.019,16.384-21.675l26.283,13.141C365.933,320.795,323.267,346.395,297.667,346.395z"/>
		<path style="fill:#B19046;" d="M255,346.395c-42.667,0-42.667-34.133-68.267-68.267c-25.6-34.133-42.667-51.2-42.667-93.867
			c0-25.6,17.067-34.133,25.6-34.133c42.667,0,51.2,25.6,85.333,25.6s42.667-25.6,85.333-25.6c8.533,0,25.6,8.533,25.6,34.133
			c0,42.667-17.067,59.733-42.667,93.867C297.667,312.262,297.667,346.395,255,346.395z"/>
		<path style="fill:#D4E1F4;" d="M451.267,320.795v0.085c0,0-25.6,42.581-51.2,51.115c0-18.091,8.704-40.619,25.856-67.328
			C436.406,305.848,445.758,311.799,451.267,320.795z"/>
		<path style="fill:#A4C2F7;" d="M502.467,347.59v135.339c-0.028,9.414-7.653,17.039-17.067,17.067h-34.133
			c-9.414-0.028-17.039-7.653-17.067-17.067v-25.6c0-17.067-8.533-68.267-34.133-85.333c14.428-6.682,26.867-17.004,36.096-29.952
			c5.468-6.735,10.512-13.803,15.104-21.163c0.029,9.77,5.443,18.728,14.08,23.296c0.085,0.085,0.085,0,0.085,0
			c3.585,1.53,7.452,2.286,11.349,2.219h0.085c6.194,0.063,12.33-1.188,18.005-3.669c1.658-0.77,3.594-0.639,5.133,0.347
			C501.544,344.058,502.473,345.762,502.467,347.59z"/>
		<g>
			<path style="fill:#D4E1F4;" d="M476.867,347.59v135.339c-0.028,9.414-7.653,17.039-17.067,17.067h-8.533
				c-9.414-0.028-17.039-7.653-17.067-17.067v-25.6c0-17.067-8.533-68.267-34.133-85.333c14.428-6.682,26.867-17.004,36.096-29.952
				c4.436,3.035,9.733,4.561,15.104,4.352c4.783,0.04,9.541-0.709,14.08-2.219c0.085,0.085,0.085,0,0.085,0
				c1.314-0.389,2.597-0.874,3.84-1.451c1.472-0.672,3.168-0.65,4.622,0.06c1.454,0.71,2.513,2.035,2.888,3.609
				C476.781,346.737,476.867,347.163,476.867,347.59z"/>
			<path style="fill:#D4E1F4;" d="M297.667,81.862v34.133c-13.457,5.835-28.001,8.743-42.667,8.533
				c-14.666,0.21-29.209-2.699-42.667-8.533V81.862c13.457,5.835,28.001,8.743,42.667,8.533
				C269.666,90.605,284.209,87.696,297.667,81.862z"/>
			<path style="fill:#D4E1F4;" d="M297.667,22.47v16.725c-13.457,5.835-28.001,8.743-42.667,8.533
				c-14.666,0.21-29.209-2.699-42.667-8.533V22.47c0.041-3.867,1.852-7.502,4.913-9.865s7.037-3.193,10.788-2.252
				c8.822,2.182,17.878,3.271,26.965,3.243c9.087,0.028,18.144-1.061,26.965-3.243c3.751-0.94,7.726-0.11,10.788,2.252
				S297.625,18.603,297.667,22.47z"/>
		</g>
		<path style="fill:#A4C2F7;" d="M365.933,184.262c0,42.667-17.067,59.733-42.667,93.867c-25.6,34.133-25.6,68.267-68.267,68.267
			c-4.301,0.049-8.594-0.38-12.8-1.28c30.208-6.315,32.768-36.693,55.467-66.987c25.6-34.133,42.667-51.2,42.667-93.867
			c1.298-13.473-5.822-26.357-17.92-32.427c5.898-1.187,11.904-1.759,17.92-1.707C348.867,150.129,365.933,158.662,365.933,184.262z
			"/>
		<g>
			<path style="fill:#D4E1F4;" d="M340.333,184.262c0,42.667-17.067,59.733-42.667,93.867
				c-22.699,30.293-25.259,60.672-55.467,66.987c-30.208-6.315-32.768-36.693-55.467-66.987c-25.6-34.133-42.667-51.2-42.667-93.867
				c-1.298-13.473,5.822-26.357,17.92-32.427c2.424-1.064,5.033-1.644,7.68-1.707c36.779,0,48.213,19.029,72.533,24.235
				c4.205,0.917,8.497,1.375,12.8,1.365c28.757,0,39.339-18.176,67.413-23.893C334.511,157.905,341.631,170.789,340.333,184.262z"/>
			<path style="fill:#D4E1F4;" d="M109.933,371.995c-25.6-8.533-51.2-51.115-51.2-51.115v-0.085
				c5.509-8.996,14.861-14.948,25.344-16.128C101.229,331.377,109.933,353.905,109.933,371.995z"/>
		</g>
		<path style="fill:#A4C2F7;" d="M109.933,371.995c-25.6,17.067-34.133,68.267-34.133,85.333v25.6
			c-0.028,9.414-7.653,17.039-17.067,17.067H24.6c-9.414-0.028-17.039-7.653-17.067-17.067V347.59
			c-0.006-1.828,0.923-3.532,2.462-4.517c1.539-0.986,3.475-1.116,5.133-0.347c5.675,2.482,11.812,3.732,18.005,3.669
			c12.668,0.716,23.702-8.56,25.173-21.163c0.242-1.41,0.385-2.836,0.427-4.267c4.204,6.667,8.762,13.105,13.653,19.285
			c0,0.085,0.085,0.085,0.171,0.171c4.708,6.125,9.902,11.861,15.531,17.152C94.259,363.883,101.707,368.8,109.933,371.995z"/>
		<path style="fill:#D4E1F4;" d="M92.867,353.649c-1.688,1.188-3.285,2.5-4.779,3.925c-24.064,22.528-32.171,75.349-32.171,93.611
			v29.269c0.235,10.491-8.029,19.211-18.517,19.541H24.6c-9.414-0.028-17.039-7.653-17.067-17.067V347.59
			c-0.006-1.828,0.923-3.532,2.462-4.517c1.539-0.986,3.475-1.116,5.133-0.347c5.675,2.482,11.812,3.732,18.005,3.669
			c12.668,0.716,23.702-8.56,25.173-21.163c4.334,5.331,9.039,10.35,14.08,15.019c0,0.085,0.085,0.085,0.171,0.171
			C78.419,346.089,85.313,350.579,92.867,353.649z"/>
		<path style="fill:#A4C2F7;" d="M502.467,141.595c0,59.733-24.576,94.72-51.2,128c-9.053,11.242-17.512,22.948-25.344,35.072
			c-17.152,26.709-25.856,49.237-25.856,67.328c0,25.6,0,93.867-59.733,93.867c-4.518,0.03-9.03-0.341-13.483-1.109
			c47.616-8.619,47.616-69.035,47.616-92.757c0-18.091,8.704-40.619,25.856-67.328c7.832-12.124,16.291-23.83,25.344-35.072
			c26.624-33.28,51.2-68.267,51.2-128c0-38.656-20.992-63.317-56.747-67.499c4.675-0.525,9.376-0.782,14.08-0.768
			C476.867,73.329,502.467,98.929,502.467,141.595z"/>
		<g>
			<path style="fill:#FFFFFF;" d="M84.077,304.667c-10.483,1.18-19.835,7.132-25.344,16.128v0.085c0,0,1.521,2.519,4.147,6.407
				c-2.623-3.844-4.147-6.322-4.147-6.322c-0.042,1.43-0.184,2.856-0.427,4.267c-1.128,8.216-6.28,15.327-13.735,18.959
				c4.573,1.484,9.354,2.228,14.162,2.203c12.668,0.716,23.702-8.56,25.173-21.163c0.242-1.41,0.385-2.836,0.427-4.267
				c0,0,1.524,2.479,4.147,6.322c-2.626-3.889-4.147-6.408-4.147-6.408v-0.085c5.509-8.996,14.861-14.948,25.344-16.128
				c-7.832-12.124-16.291-23.83-25.344-35.072c-26.624-33.28-51.2-68.267-51.2-128c0-38.56,20.962-63.109,56.482-67.491
				c-4.588-0.504-9.2-0.763-13.815-0.776c-42.667,0-68.267,25.6-68.267,68.267c0,59.733,24.576,94.72,51.2,128
				C67.786,280.837,76.245,292.544,84.077,304.667z"/>
			<path style="fill:#FFFFFF;" d="M213.313,22.47v143.791c0.923,0.171,1.848,0.337,2.731,0.534c0.777,0.173,1.541,0.355,2.291,0.546
				c1.188,0.301,2.346,0.623,3.475,0.964c0.677,0.204,1.358,0.404,2.015,0.621c1.207,0.397,2.374,0.82,3.522,1.255
				c0.505,0.191,1.026,0.372,1.521,0.569c0.911,0.364,1.79,0.745,2.671,1.127l0.618,0.268c2.592,1.144,5.071,2.348,7.472,3.583
				V22.47c0.008-3.761,1.763-7.305,4.749-9.591c-5.026-0.508-10.012-1.352-14.925-2.526c-3.802-0.984-7.846-0.185-10.987,2.174
				C215.326,14.884,213.429,18.544,213.313,22.47z"/>
			<path style="fill:#FFFFFF;" d="M284.895,10.353c-4.794,1.147-9.659,1.979-14.562,2.491c4.369,0.49,8.762,0.741,13.158,0.752
				c4.275-0.012,8.546-0.251,12.796-0.717C293.07,10.353,288.879,9.424,284.895,10.353z"/>
			<path style="fill:#FFFFFF;" d="M37.4,499.995h12.8c-9.414-0.028-17.039-7.653-17.067-17.067V347.59
				c0.053-0.42,0.159-0.832,0.316-1.225c-0.114,0.001-0.2,0.03-0.316,0.03c-6.194,0.063-12.33-1.188-18.005-3.669
				c-1.658-0.77-3.594-0.639-5.133,0.347c-1.539,0.986-2.468,2.69-2.462,4.517v135.339c0.028,9.414,7.653,17.039,17.067,17.067H37.4
				z"/>
		</g>
	</g>
	<g>
		<path style="fill:#FFFFFF;" d="M17.067,348.591v110.933l0.04,25.009c0.341,4.448,4.032,7.894,8.493,7.929v17.067
			c-13.414-0.067-24.524-10.433-25.519-23.811L0,459.524V348.591H17.067z"/>
		<g>
			<path style="fill:#428DFF;" d="M358.4,364.462h-8.533c-29.733,0-59.733,10.558-59.733,34.133
				c0,14.175,13.233,34.133,42.667,34.133c19.957,0,24.529-31.134,25.406-51.2h0.194c4.713,0,8.533-3.821,8.533-8.533
				C366.933,368.282,363.113,364.462,358.4,364.462z M332.7,415.662c-21.167-0.042-25.5-13.467-25.5-17.067
				c0-8.2,14.542-15.075,33.858-16.7C340,399.387,336.058,413.878,332.7,415.662z"/>
			<path style="fill:#428DFF;" d="M512,142.595c0-47.375-29.425-76.8-76.8-76.8c-49.19-2.033-93.277,30.145-106.338,77.613
				c-7.424,0.877-14.705,2.706-21.662,5.44v-6.952c8.563-1.049,16.611-4.65,23.1-10.335c3.276-3.289,3.299-8.601,0.05-11.917
				c-3.27-3.341-8.611-3.452-12.017-0.25c-3.228,2.621-7.052,4.407-11.133,5.201V73.63c8.563-1.049,16.611-4.65,23.1-10.335
				c3.276-3.289,3.299-8.601,0.05-11.917c-3.271-3.336-8.609-3.447-12.017-0.25c-3.228,2.621-7.052,4.407-11.133,5.201V23.496
				c0.02-6.436-2.936-12.521-8.008-16.483c-5.162-4.047-11.899-5.492-18.267-3.917c-16.381,3.933-33.461,3.933-49.842,0
				c-6.37-1.574-13.11-0.129-18.275,3.917c-5.072,3.962-8.028,10.047-8.008,16.483v32.835c-4.036-0.785-7.821-2.536-11.034-5.102
				c-3.341-3.281-8.701-3.256-12.012,0.054c-3.311,3.311-3.335,8.671-0.054,12.012c6.488,5.685,14.537,9.286,23.1,10.335v50.967
				c-4.036-0.785-7.821-2.536-11.034-5.102c-3.34-3.288-8.706-3.267-12.019,0.047c-3.314,3.314-3.335,8.68-0.047,12.019
				c6.488,5.685,14.537,9.286,23.1,10.335v6.952c-6.958-2.734-14.238-4.563-21.662-5.44C170.077,95.94,125.99,63.762,76.8,65.795
				c-47.375,0-76.8,29.425-76.8,76.8c0,61.858,25.1,98.367,53.067,133.333c6.955,8.693,13.021,16.93,18.515,24.869
				c-8.378,3.149-15.309,9.262-19.482,17.181c-0.106,0.213-0.144,0.444-0.231,0.661c-0.106,0.26-0.198,0.525-0.277,0.794
				c-0.177,0.62-0.283,1.259-0.316,1.904c-0.008,0.157-0.076,0.299-0.076,0.458c0.297,4.611-1.405,9.127-4.673,12.394
				c-3.267,3.267-7.783,4.97-12.394,4.673c-4.98,0.073-9.917-0.927-14.475-2.933c-4.303-1.967-9.312-1.607-13.29,0.954
				C2.39,339.445-0.01,343.855,0,348.587l0.001,0.004H0v34.133c0,4.713,3.821,8.533,8.533,8.533s8.533-3.82,8.533-8.533v-29.588
				c5.498,1.858,11.263,2.802,17.067,2.793c11.417,0.551,22.257-5.047,28.417-14.675c0.274,0.372,0.589,0.775,0.872,1.154
				c0.393,0.526,0.794,1.055,1.204,1.593c0.643,0.844,1.296,1.689,1.979,2.558c0.497,0.631,1.004,1.264,1.52,1.905
				c0.665,0.825,1.338,1.646,2.034,2.481c0.569,0.682,1.149,1.361,1.738,2.047c0.698,0.813,1.402,1.619,2.127,2.432
				c0.631,0.708,1.274,1.407,1.925,2.112c0.734,0.794,1.471,1.579,2.229,2.364c0.679,0.703,1.366,1.394,2.063,2.086
				c0.771,0.767,1.545,1.522,2.336,2.27c0.719,0.68,1.446,1.341,2.18,2.002c0.807,0.727,1.617,1.44,2.442,2.139
				c0.746,0.631,1.498,1.239,2.258,1.845c0.846,0.676,1.693,1.335,2.554,1.973c0.764,0.566,1.533,1.102,2.308,1.635
				c0.53,0.365,1.046,0.772,1.581,1.12c-22.417,25.2-27.633,71.65-27.633,83.359v25.6c-0.003,4.712-3.822,8.53-8.533,8.533H25.6
				c-4.461-0.034-8.153-3.48-8.493-7.929l-0.04-25.009v-8.533c0-4.713-3.821-8.533-8.533-8.533S0,446.278,0,450.991v8.533
				l0.081,26.194c0.995,13.378,12.104,23.744,25.519,23.811h34.133c14.132-0.015,25.585-11.468,25.6-25.6v-25.6
				c0.854-22.498,6.91-44.491,17.692-64.255c2.286,32.697,13.387,81.322,67.642,81.322c36.238-0.624,69.124-21.342,85.333-53.758
				c16.209,32.417,49.095,53.134,85.333,53.758c54.255,0,65.356-48.624,67.642-81.322c10.782,19.764,16.837,41.758,17.692,64.255
				v25.6c0.015,14.132,11.468,25.585,25.6,25.6H486.4c14.132-0.015,25.585-11.468,25.6-25.6V348.587
				c0.011-4.73-2.388-9.14-6.364-11.701c-3.976-2.562-8.983-2.922-13.286-0.957c-4.561,2.005-9.501,3.006-14.483,2.933
				c-4.619,0.294-9.141-1.416-12.409-4.694c-3.268-3.278-4.965-7.805-4.657-12.423c-0.001-0.166-0.071-0.314-0.082-0.479
				c-0.037-0.63-0.144-1.253-0.319-1.859c-0.079-0.269-0.171-0.533-0.277-0.792c-0.084-0.21-0.12-0.433-0.222-0.637
				c-4.172-7.918-11.104-14.031-19.482-17.181c5.494-7.939,11.56-16.176,18.515-24.869C486.9,240.962,512,204.453,512,142.595z
				 M357.862,196.894c-0.072,0.799-0.194,1.538-0.282,2.318c-0.328,2.866-0.738,5.632-1.272,8.259
				c-0.154,0.76-0.328,1.507-0.5,2.252c-0.579,2.508-1.257,4.921-2.024,7.263c-0.248,0.753-0.484,1.514-0.753,2.256
				c-0.785,2.182-1.684,4.292-2.631,6.379c-0.376,0.821-0.706,1.654-1.109,2.471c-0.933,1.904-1.99,3.773-3.055,5.642
				c-0.524,0.918-0.975,1.832-1.535,2.755c-1.577,2.604-3.277,5.208-5.096,7.847c-0.949,1.38-2.032,2.84-3.055,4.261
				c-3.354,4.651-6.949,9.43-10.958,14.673c-2.608,3.408-5.325,6.975-8.15,10.742c-7.003,9.689-13.201,19.934-18.533,30.633
				c-11.257,21.333-18.049,34.217-42.908,34.217s-31.65-12.883-42.908-34.217c-5.332-10.699-11.531-20.945-18.533-30.633
				c-2.825-3.767-5.542-7.333-8.15-10.742c-4.009-5.243-7.604-10.022-10.958-14.673c-1.023-1.422-2.106-2.881-3.055-4.261
				c-1.819-2.64-3.52-5.243-5.096-7.847c-0.56-0.923-1.01-1.837-1.535-2.755c-1.065-1.869-2.121-3.738-3.055-5.642
				c-0.403-0.817-0.733-1.649-1.109-2.471c-0.947-2.086-1.846-4.197-2.631-6.379c-0.269-0.742-0.505-1.504-0.753-2.256
				c-0.768-2.342-1.445-4.755-2.024-7.263c-0.172-0.745-0.346-1.492-0.5-2.252c-0.534-2.628-0.944-5.393-1.271-8.259
				c-0.087-0.78-0.209-1.518-0.282-2.318c-0.336-3.66-0.538-7.493-0.538-11.632c0-21.258,13.458-25.6,17.067-25.6
				c13.552-0.173,26.9,3.308,38.642,10.076l0.033,0.024l5.008,2.708c12.429,8.042,26.849,12.471,41.65,12.792
				c14.801-0.321,29.221-4.749,41.65-12.791l5.008-2.708l0.033-0.024c11.742-6.768,25.09-10.249,38.642-10.076
				c3.608,0,17.067,4.342,17.067,25.6C358.4,189.401,358.198,193.234,357.862,196.894z M172.85,273.637
				c2.575,3.375,5.267,6.892,8.058,10.608c6.46,8.971,12.177,18.456,17.092,28.358c4.472,9.404,10.057,18.237,16.636,26.31
				c-0.448-0.004-0.849-0.051-1.303-0.051c-20.608,0-56.783-21.075-59.567-63.075l15.002-7.501
				C170.103,270.043,171.464,271.827,172.85,273.637L172.85,273.637z M339.15,273.637c1.388-1.815,2.749-3.599,4.081-5.351
				l15.002,7.501c-2.784,42-38.959,63.075-59.567,63.075c-0.454,0-0.854,0.047-1.303,0.051c6.578-8.072,12.164-16.906,16.636-26.31
				c4.915-9.903,10.631-19.387,17.092-28.358C333.884,280.529,336.575,277.012,339.15,273.637L339.15,273.637z M288.258,111.928
				c-1.209,0.404-2.541,0.824-4.051,1.249l-0.413,0.108c-1.391,0.385-2.932,0.764-4.553,1.13c-0.439,0.099-0.882,0.197-1.336,0.293
				c-1.869,0.396-3.836,0.773-5.965,1.094l-0.28,0.036c-2.001,0.296-4.145,0.531-6.354,0.723c-0.592,0.052-1.191,0.099-1.796,0.141
				c-2.408,0.169-4.892,0.292-7.511,0.292c-2.59,0-5.052-0.123-7.443-0.293c-0.607-0.043-1.206-0.091-1.798-0.143
				c-2.144-0.189-4.223-0.419-6.177-0.707l-0.452-0.058c-2.107-0.32-4.064-0.695-5.922-1.088c-0.466-0.098-0.919-0.199-1.368-0.301
				c-1.606-0.363-3.134-0.737-4.519-1.118l-0.448-0.117c-1.548-0.434-2.925-0.865-4.161-1.276l-0.718-0.243
				c-0.426-0.146-0.745-0.269-1.126-0.407V95.087c0.157,0.046,0.362,0.09,0.522,0.137c0.951,0.276,2.048,0.535,3.093,0.807
				c1.189,0.309,2.307,0.618,3.611,0.912c1.284,0.29,2.726,0.532,4.116,0.796c1.266,0.24,2.448,0.499,3.799,0.71
				c1.756,0.274,3.679,0.461,5.57,0.67c1.156,0.127,2.222,0.301,3.426,0.398c3.179,0.258,6.51,0.412,9.997,0.412
				c3.486,0,6.818-0.154,9.996-0.412c1.207-0.098,2.276-0.271,3.435-0.399c1.887-0.208,3.807-0.395,5.56-0.669
				c1.353-0.211,2.537-0.471,3.806-0.712c1.388-0.264,2.826-0.505,4.108-0.794c1.308-0.295,2.43-0.605,3.622-0.915
				c1.042-0.271,2.134-0.53,3.083-0.804c0.16-0.046,0.365-0.09,0.522-0.137v16.179c-0.318,0.116-0.586,0.219-0.936,0.341
				C288.894,111.713,288.585,111.819,288.258,111.928z M225.481,53.364c1.189,0.309,2.307,0.618,3.611,0.912
				c1.284,0.29,2.726,0.532,4.116,0.796c1.266,0.24,2.448,0.499,3.799,0.71c1.756,0.274,3.679,0.461,5.57,0.67
				c1.156,0.127,2.222,0.301,3.426,0.398c3.179,0.258,6.51,0.412,9.996,0.412c3.486,0,6.818-0.154,9.996-0.412
				c1.207-0.098,2.276-0.271,3.435-0.399c1.887-0.208,3.807-0.395,5.56-0.669c1.353-0.211,2.537-0.471,3.806-0.712
				c1.388-0.264,2.826-0.505,4.108-0.794c1.308-0.295,2.43-0.605,3.622-0.915c1.042-0.271,2.134-0.53,3.083-0.804
				c0.16-0.046,0.365-0.09,0.522-0.137v24.712c-0.318,0.116-0.586,0.219-0.936,0.341c-0.304,0.106-0.612,0.212-0.939,0.321
				c-1.209,0.404-2.541,0.824-4.051,1.249l-0.412,0.108c-1.391,0.385-2.932,0.764-4.553,1.13c-0.439,0.099-0.882,0.197-1.336,0.293
				c-1.869,0.396-3.837,0.773-5.965,1.094l-0.28,0.036c-2.001,0.296-4.145,0.531-6.354,0.723c-0.592,0.052-1.191,0.099-1.796,0.141
				c-2.409,0.169-4.892,0.292-7.511,0.292c-2.59,0-5.052-0.123-7.443-0.293c-0.607-0.043-1.206-0.091-1.798-0.143
				c-2.144-0.189-4.223-0.419-6.177-0.707l-0.452-0.058c-2.107-0.32-4.064-0.695-5.922-1.088c-0.466-0.098-0.919-0.199-1.368-0.301
				c-1.606-0.363-3.134-0.737-4.519-1.118l-0.448-0.117c-1.548-0.434-2.925-0.865-4.161-1.276l-0.718-0.243
				c-0.426-0.146-0.745-0.269-1.126-0.407V52.42c0.157,0.046,0.362,0.09,0.522,0.137C223.34,52.832,224.437,53.092,225.481,53.364
				L225.481,53.364z M223.342,20.437c1.047-0.818,2.416-1.099,3.7-0.758c19.036,4.583,38.889,4.583,57.925,0
				c1.282-0.33,2.644-0.05,3.692,0.758c0.949,0.728,1.496,1.863,1.475,3.058v10.97c-0.318,0.116-0.587,0.219-0.936,0.341
				c-0.304,0.106-0.612,0.212-0.939,0.321c-1.209,0.404-2.541,0.824-4.051,1.249l-0.413,0.108c-1.391,0.385-2.932,0.764-4.553,1.13
				c-0.439,0.099-0.882,0.197-1.336,0.293c-1.869,0.396-3.836,0.773-5.965,1.094l-0.28,0.036c-2.001,0.296-4.145,0.531-6.354,0.723
				c-0.592,0.052-1.191,0.099-1.796,0.141c-2.408,0.169-4.892,0.292-7.511,0.292c-2.59,0-5.052-0.123-7.443-0.293
				c-0.607-0.043-1.206-0.091-1.798-0.143c-2.144-0.189-4.223-0.419-6.177-0.707l-0.452-0.058c-2.107-0.32-4.064-0.695-5.922-1.088
				c-0.466-0.098-0.919-0.199-1.368-0.301c-1.606-0.363-3.134-0.737-4.519-1.118l-0.448-0.117c-1.548-0.434-2.925-0.865-4.161-1.276
				l-0.718-0.243c-0.426-0.146-0.745-0.269-1.126-0.407v-10.95C221.845,22.3,222.393,21.165,223.342,20.437L223.342,20.437z
				 M221.867,129.22c0.157,0.046,0.362,0.09,0.522,0.137c0.951,0.276,2.048,0.535,3.093,0.807c1.189,0.309,2.307,0.618,3.611,0.912
				c1.284,0.29,2.726,0.532,4.116,0.796c1.266,0.24,2.448,0.499,3.799,0.71c1.756,0.274,3.679,0.461,5.57,0.67
				c1.156,0.127,2.222,0.301,3.426,0.398c3.179,0.258,6.51,0.412,9.996,0.412c3.486,0,6.818-0.154,9.996-0.412
				c1.207-0.098,2.276-0.271,3.435-0.399c1.887-0.208,3.807-0.395,5.56-0.669c1.353-0.211,2.537-0.471,3.806-0.712
				c1.388-0.264,2.826-0.505,4.108-0.794c1.308-0.295,2.43-0.605,3.622-0.915c1.042-0.271,2.134-0.53,3.083-0.804
				c0.16-0.046,0.365-0.09,0.522-0.137v27.899l-0.725,0.393c-9.925,6.601-21.495,10.301-33.408,10.683
				c-11.913-0.382-23.483-4.083-33.408-10.684l-0.725-0.393V129.22z M93.313,338.169c1.283,2.834,2.404,5.578,3.415,8.261
				c0.362,0.97,0.693,1.923,1.019,2.874c0.77,2.217,1.466,4.393,2.041,6.5c0.096,0.36,0.152,0.697,0.243,1.053l-0.2-0.154
				c-1.348-1.095-2.687-2.252-4.017-3.471c-0.37-0.34-0.733-0.704-1.102-1.052c-0.983-0.929-1.959-1.875-2.921-2.851
				c-0.504-0.511-1.002-1.031-1.5-1.552c-0.852-0.893-1.693-1.797-2.523-2.714c-0.452-0.499-0.907-0.996-1.353-1.499
				c-1.07-1.212-2.117-2.432-3.141-3.659c-0.193-0.23-0.392-0.461-0.582-0.692c-1.133-1.372-2.227-2.737-3.282-4.095
				c-0.355-0.455-0.694-0.903-1.041-1.354c-0.771-1.006-1.525-2.002-2.246-2.977c-0.307-0.415-0.613-0.829-0.909-1.236
				c-0.818-1.124-1.602-2.221-2.34-3.277l-0.41-0.58c-0.892-1.286-1.72-2.51-2.473-3.653l-0.063-0.097
				c3.116-3.087,6.967-5.329,11.19-6.515c4.259,6.895,8.119,14.028,11.562,21.365C92.89,337.253,93.108,337.714,93.313,338.169z
				 M170.667,458.329c-45.383,0-51.2-45.6-51.2-85.333c-0.033-3.193-0.274-6.38-0.721-9.542c-0.133-1.021-0.314-2.064-0.489-3.103
				c-0.401-2.356-0.919-4.765-1.54-7.218c-0.297-1.191-0.552-2.362-0.901-3.575c-0.896-3.084-1.945-6.239-3.177-9.479
				c-0.821-2.183-1.82-4.45-2.793-6.703c-0.513-1.175-1.016-2.347-1.57-3.543c-11.329-23.119-25.388-44.797-41.877-64.57
				c-26.992-33.742-49.333-66.258-49.333-122.667c0-37.958,21.775-59.733,59.733-59.733c57.167,0,79.725,36.642,88.333,60.358
				c-1.861,0.427-3.679,1.025-5.43,1.787c-0.587,0.25-1.154,0.605-1.739,0.895c-1.255,0.606-2.471,1.289-3.641,2.045
				c-0.68,0.449-1.32,0.982-1.983,1.49c-1.087,0.823-2.126,1.707-3.113,2.649c-0.662,0.638-1.284,1.325-1.914,2.032
				c-0.949,1.071-1.836,2.194-2.658,3.366c-0.575,0.814-1.129,1.637-1.657,2.521c-0.796,1.37-1.512,2.785-2.146,4.238
				c-0.43,0.954-0.875,1.873-1.247,2.894c-0.624,1.811-1.139,3.658-1.543,5.53c-0.225,0.969-0.521,1.858-0.693,2.877
				c-0.553,3.21-0.833,6.461-0.836,9.718c0,3.631,0.161,7.044,0.395,10.364c0.043,0.592,0.083,1.189,0.132,1.772
				c0.499,6.239,1.517,12.426,3.045,18.496c0.063,0.247,0.122,0.501,0.186,0.746c0.735,2.792,1.558,5.497,2.487,8.107
				c0.1,0.282,0.213,0.55,0.315,0.83c0.778,2.122,1.618,4.196,2.521,6.222c0.283,0.643,0.561,1.294,0.855,1.926
				c0.935,2.001,1.917,3.973,2.963,5.911c0.546,1.014,1.125,2.001,1.696,2.994c0.57,0.993,1.152,1.986,1.751,2.97
				c0.665,1.091,1.331,2.186,2.022,3.259c0.746,1.161,1.527,2.321,2.308,3.479c0.445,0.657,0.863,1.331,1.316,1.984l-6.411,3.207
				c-1.507-2.455-4.167-3.965-7.047-4c-2.264-0.001-4.435,0.897-6.035,2.498s-2.499,3.772-2.498,6.035v8.533
				c0,54.942,45.408,85.333,76.8,85.333c11.62-0.033,23.162,1.905,34.133,5.733v36.712
				C246.791,404.344,224.782,458.329,170.667,458.329z M477.867,355.929c5.798,0.037,11.563-0.875,17.067-2.7v130.7
				c-0.003,4.712-3.822,8.53-8.533,8.533h-34.133c-4.712-0.003-8.53-3.822-8.533-8.533v-25.6c0-11.708-5.217-58.158-27.633-83.358
				c0.535-0.348,1.051-0.755,1.581-1.12c0.774-0.533,1.545-1.069,2.308-1.635c0.861-0.638,1.708-1.297,2.554-1.973
				c0.759-0.606,1.512-1.214,2.258-1.845c0.825-0.7,1.635-1.413,2.442-2.139c0.734-0.661,1.461-1.322,2.18-2.002
				c0.791-0.748,1.565-1.504,2.336-2.27c0.696-0.692,1.384-1.383,2.063-2.086c0.757-0.785,1.495-1.57,2.229-2.364
				c0.651-0.705,1.293-1.404,1.925-2.112c0.725-0.813,1.429-1.62,2.127-2.432c0.589-0.686,1.169-1.365,1.738-2.047
				c0.696-0.835,1.369-1.656,2.034-2.481c0.517-0.641,1.023-1.273,1.52-1.905c0.683-0.869,1.336-1.714,1.979-2.558
				c0.41-0.539,0.811-1.067,1.204-1.593c0.283-0.38,0.598-0.782,0.872-1.154C455.61,350.882,466.45,356.48,477.867,355.929z
				 M430.883,315.429c4.224,1.188,8.075,3.432,11.193,6.519l-0.242,0.374c-0.658,0.995-1.367,2.044-2.129,3.148
				c-0.347,0.502-0.732,1.038-1.098,1.558c-0.523,0.742-1.056,1.491-1.617,2.265c-0.423,0.583-0.863,1.178-1.306,1.776
				c-0.59,0.796-1.203,1.606-1.827,2.422c-0.44,0.576-0.874,1.148-1.33,1.731c-0.948,1.213-1.927,2.434-2.936,3.663
				c-0.341,0.416-0.69,0.83-1.039,1.246c-0.958,1.146-1.938,2.287-2.939,3.423c-0.45,0.509-0.911,1.01-1.368,1.516
				c-0.84,0.927-1.691,1.842-2.554,2.745c-0.474,0.496-0.949,0.992-1.429,1.479c-1.034,1.049-2.08,2.069-3.14,3.061
				c-0.297,0.279-0.589,0.573-0.887,0.847c-1.352,1.241-2.717,2.418-4.093,3.532l-0.176,0.136c0.09-0.35,0.144-0.682,0.239-1.035
				c0.583-2.138,1.288-4.345,2.071-6.596c0.313-0.911,0.63-1.824,0.976-2.752c1.025-2.721,2.16-5.505,3.465-8.383
				c0.182-0.404,0.375-0.815,0.563-1.221C422.733,329.515,426.607,322.352,430.883,315.429z M403.696,329.893
				c-0.529,1.143-1.011,2.265-1.502,3.39c-0.993,2.295-2.01,4.603-2.845,6.827c-1.225,3.223-2.267,6.361-3.159,9.429
				c-0.354,1.232-0.614,2.421-0.915,3.63c-0.615,2.438-1.13,4.831-1.529,7.171c-0.176,1.045-0.358,2.093-0.492,3.12
				c-0.447,3.16-0.687,6.345-0.72,9.536c0,39.733-5.817,85.333-51.2,85.333c-54.192,0-76.192-54.15-76.8-59.733v-36.958
				c10.969-3.835,22.513-5.766,34.133-5.709c31.392,0,76.8-30.392,76.8-85.333v-8.533c0.001-2.264-0.897-4.435-2.498-6.035
				c-1.601-1.601-3.772-2.499-6.035-2.498c-2.88,0.035-5.54,1.544-7.047,3.999l-6.411-3.207c0.433-0.624,0.832-1.268,1.257-1.895
				c0.802-1.188,1.602-2.377,2.367-3.568c0.691-1.073,1.357-2.167,2.022-3.259c0.598-0.983,1.179-1.976,1.751-2.97
				c0.571-0.994,1.15-1.98,1.696-2.994c1.046-1.938,2.028-3.91,2.963-5.911c0.294-0.632,0.572-1.283,0.855-1.926
				c0.899-2.029,1.739-4.103,2.521-6.222c0.102-0.28,0.215-0.548,0.315-0.83c0.93-2.61,1.759-5.313,2.488-8.109
				c0.064-0.243,0.122-0.493,0.184-0.738c1.528-6.072,2.547-12.26,3.046-18.502c0.049-0.583,0.09-1.18,0.132-1.772
				c0.234-3.319,0.395-6.732,0.395-10.363c-0.003-3.257-0.283-6.508-0.836-9.718c-0.172-1.015-0.468-1.904-0.692-2.87
				c-0.404-1.876-0.92-3.726-1.545-5.54c-0.372-1.019-0.817-1.935-1.245-2.888c-0.634-1.454-1.351-2.87-2.147-4.241
				c-0.528-0.884-1.081-1.707-1.657-2.521c-0.822-1.171-1.709-2.295-2.658-3.366c-0.63-0.706-1.252-1.393-1.914-2.032
				c-0.986-0.942-2.026-1.827-3.114-2.651c-0.662-0.507-1.302-1.039-1.98-1.488c-1.171-0.758-2.388-1.442-3.644-2.048
				c-0.583-0.29-1.151-0.644-1.736-0.894c-1.751-0.762-3.569-1.361-5.43-1.787c8.608-23.716,31.166-60.358,88.333-60.358
				c37.958,0,59.733,21.775,59.733,59.733c0,56.408-22.342,88.925-49.333,122.667C429.096,285.051,415.028,306.75,403.696,329.893
				L403.696,329.893z"/>
			<path style="fill:#428DFF;" d="M162.133,364.462c-2.264-0.001-4.435,0.897-6.035,2.498c-1.601,1.601-2.499,3.772-2.498,6.035
				c0,17.958,2.492,59.733,25.6,59.733c29.433,0,42.667-19.958,42.667-34.133C221.867,375.02,191.867,364.462,162.133,364.462z
				 M179.3,415.662c-3.358-1.783-7.3-16.275-8.358-33.766c19.317,1.625,33.858,8.5,33.858,16.7
				C204.8,402.195,200.467,415.62,179.3,415.662z"/>
			<path style="fill:#428DFF;" d="M8.533,425.391c2.259-0.034,4.422-0.918,6.059-2.475c3.3-3.365,3.3-8.752,0-12.117l-1.279-1.025
				c-0.476-0.324-0.993-0.583-1.538-0.771c-0.484-0.246-1.002-0.417-1.537-0.508c-0.563-0.096-1.133-0.153-1.704-0.171
				c-2.259,0.031-4.423,0.915-6.059,2.475c-3.221,3.397-3.221,8.72,0,12.117c0.815,0.77,1.77,1.379,2.813,1.792
				C6.314,425.145,7.417,425.377,8.533,425.391z"/>
			<circle style="fill:#428DFF;" cx="204.8" cy="210.862" r="8.533"/>
			<circle style="fill:#428DFF;" cx="221.867" cy="236.462" r="8.533"/>
			<circle style="fill:#428DFF;" cx="230.4" cy="270.595" r="8.533"/>
			<circle style="fill:#428DFF;" cx="238.933" cy="304.729" r="8.533"/>
			<circle style="fill:#428DFF;" cx="307.2" cy="210.862" r="8.533"/>
			<circle style="fill:#428DFF;" cx="290.133" cy="236.462" r="8.533"/>
			<circle style="fill:#428DFF;" cx="281.6" cy="270.595" r="8.533"/>
			<circle style="fill:#428DFF;" cx="273.067" cy="304.729" r="8.533"/>
		</g>
	</g>
</g>
<g>
</g>
<g>
</g>
<g>
</g>
<g>
</g>
<g>
</g>
<g>
</g>
<g>
</g>
<g>
</g>
<g>
</g>
<g>
</g>
<g>
</g>
<g>
</g>
<g>
</g>
<g>
</g>
<g>
</g>
</svg>
