<svg height="512pt" viewBox="0 0 512 512.08696" width="512pt" xmlns="http://www.w3.org/2000/svg"><path d="m336 336.226562-11.691406 48.726563-23.125-1.964844-260.179688-22.527343c-25.429687-19.796876-30.550781-57.003907-15.359375-87.382813 17.066407-34.132813 8.53125-81.066406 8.53125-81.066406h290.132813s-8.53125 46.933593 8.535156 81.066406c10.128906 19.605469 11.28125 42.632813 3.15625 63.148437zm0 0" fill="#7facfa"/><path d="m312.363281 336.226562-11.179687 46.761719-260.179688-22.527343c-25.429687-19.796876-30.550781-57.003907-15.359375-87.382813 17.066407-34.132813 8.53125-81.066406 8.53125-81.066406h266.496094s-8.53125 46.933593 8.535156 81.066406c10.128907 19.605469 11.28125 42.632813 3.15625 63.148437zm0 0" fill="#a4c2f7"/><path d="m349.140625 369.25-11.261719 133.460938c-1.628906.523437-3.328125.785156-5.035156.769531h-307.199219c-9.414062-.03125-17.039062-7.652344-17.066406-17.066407v-51.203124c.023437-47.3125 32.429687-88.464844 78.421875-99.582032h184.488281c12.761719 3.085938 24.8125 8.589844 35.5 16.214844zm0 0" fill="#e8edfc"/><path d="m132.308594 335.628906h93.867187l-46.933593 56.917969zm0 0" fill="#bdc3c7"/><path d="m204.84375 287.84375v66.300781l-25.601562 38.402344-25.597657-38.402344v-66.300781zm0 0" fill="#e8edfc"/><path d="m324.308594 149.347656c0 1.363282 0 15.613282-.082032 17.066406h-289.964843c-.085938-1.453124-.085938-15.703124-.085938-17.066406 1-74.355468 59.003907-135.441406 133.207031-140.289062 3.925782-.34375 7.851563-.511719 11.859376-.511719 78.933593-1.15625 143.867187 61.871094 145.066406 140.800781zm0 0" fill="#7facfa"/><path d="m300.671875 149.347656c0 1.363282 0 15.613282-.085937 17.066406h-266.324219c-.085938-1.453124-.085938-15.703124-.085938-17.066406 1-74.355468 59.003907-135.441406 133.207031-140.289062 74.234376 4.804687 132.289063 65.902344 133.289063 140.289062zm0 0" fill="#a4c2f7"/><path d="m306.644531 162.144531h17.664063c9.398437.070313 17 7.671875 17.066406 17.066407-.027344 9.414062-7.652344 17.039062-17.066406 17.066406h-290.132813c-9.414062-.027344-17.039062-7.652344-17.066406-17.066406.070313-9.394532 7.671875-16.996094 17.066406-17.066407zm0 0" fill="#cad9fc"/><path d="m307.242188 173.152344c-.011719 4.050781-.238282 8.09375-.679688 12.117187-.429688 3.671875-1.027344 7.339844-1.792969 10.925781-12.007812 47.769532-51.296875 83.804688-99.925781 91.648438-8.445312 1.550781-17.015625 2.320312-25.601562 2.300781-3.980469 0-7.90625-.167969-11.773438-.511719-4.640625-.332031-9.253906-.929687-13.824219-1.789062-48.769531-7.796875-88.128906-44.035156-99.925781-91.992188-.769531-3.496093-1.367188-6.996093-1.792969-10.582031-.441406-4.023437-.667969-8.066406-.683593-12.117187-.015626-3.675782.183593-7.351563.597656-11.007813.257812-3.070312.769531-6.144531 1.28125-9.214843.511718-3.070313 1.363281-5.886719 2.132812-8.789063l4.523438-24.660156c43.179687-10.667969 65.109375-29.441407 75.777344-43.179688 4.121093-4.921875 7.351562-10.523437 9.554687-16.554687 0 0 27.136719 47.53125 105.644531 51.710937 2.558594.171875 5.117188.257813 7.851563.257813 7.6875.15625 15.378906-.101563 23.039062-.769532 8.890625 10.4375 16.273438 22.070313 21.929688 34.5625.683593 2.472657 1.28125 4.949219 1.792969 7.421876.511718 3.070312 1.023437 6.144531 1.277343 9.214843.417969 3.65625.617188 7.332031.597657 11.007813zm0 0" fill="#cad9fc"/><path d="m283.605469 173.152344c-.011719 4.050781-.238281 8.09375-.683594 12.117187-.425781 3.671875-1.023437 7.339844-1.789063 10.925781-12.007812 47.769532-51.296874 83.804688-99.925781 91.648438-4.542969.859375-9.128906 1.457031-13.738281 1.789062-4.640625-.332031-9.253906-.929687-13.824219-1.789062-48.769531-7.796875-88.128906-44.035156-99.925781-91.992188-.769531-3.496093-1.367188-6.996093-1.792969-10.582031-.441406-4.023437-.667969-8.066406-.683593-12.117187-.015626-3.675782.183593-7.351563.597656-11.007813.257812-3.070312.769531-6.144531 1.28125-9.214843.511718-3.070313 1.363281-5.886719 2.132812-8.789063l4.523438-24.660156c43.179687-10.667969 65.109375-29.441407 75.777344-43.179688 17.578124 16.296875 53.246093 38.484375 115.199218 35.15625 2.386719-.085937 4.777344-.253906 7.253906-.511719.21875.238282.417969.496094.597657.769532 8.71875 10.164062 15.90625 21.546875 21.332031 33.792968.683594 2.472657 1.28125 4.949219 1.792969 7.421876.511719 3.070312 1.023437 6.144531 1.277343 9.214843.417969 3.65625.617188 7.332031.597657 11.007813zm0 0" fill="#e8edfc"/><path d="m179.242188 392.546875-26.367188 32.953125c-1.757812 2.195312-4.480469 3.382812-7.285156 3.175781-2.804688-.207031-5.324219-1.777343-6.742188-4.207031l-48.488281-83.121094c-1.25-2.148437-1.507813-4.730468-.699219-7.082031.808594-2.347656 2.601563-4.226563 4.90625-5.148437l27.078125-10.8125c3.75-1.472657 8.019531-.121094 10.238281 3.242187l21.761719 32.597656zm0 0" fill="#e8edfc"/><path d="m268.125 341.347656-48.484375 83.105469c-1.417969 2.425781-3.941406 4-6.742187 4.207031-2.804688.207032-5.53125-.980468-7.285157-3.175781l-26.371093-32.9375 25.601562-38.402344 21.761719-32.597656c2.21875-3.363281 6.488281-4.714844 10.238281-3.242187l27.074219 10.828124c2.304687.921876 4.089843 2.800782 4.898437 5.144532s.558594 4.925781-.691406 7.070312zm0 0" fill="#e8edfc"/><path d="m503.511719 403.128906c0 60.160156-36.78125 100.351563-61.355469 100.351563-4.890625.097656-9.773438-.476563-14.507812-1.707031-10.75-2.730469-13.140626-8.363282-22.273438-8.363282-4.234375.070313-8.34375 1.441406-11.773438 3.925782-7.523437 4.527343-16.238281 6.667968-25.003906 6.144531-3.117187-.050781-6.203125-.628907-9.128906-1.707031-23.554688-8.023438-52.226562-45.570313-52.226562-98.644532 0-49.496094 16.640624-65.109375 36.183593-69.121094 4.242188-.828124 8.558594-1.230468 12.882813-1.195312 12.808594.636719 25.0625 5.429688 34.902344 13.652344 2.902343 2.070312 6.339843 3.257812 9.898437 3.414062 2.101563-.039062 4.179687-.445312 6.144531-1.195312l43.777344-12.542969 10.324219-2.988281c22.015625 1.964844 42.15625 15.363281 42.15625 69.976562zm0 0" fill="#cad9fc"/><path d="m479.871094 403.128906c0 53.074219-28.671875 90.621094-52.222656 98.644532-10.75-2.730469-13.140626-8.363282-22.273438-8.363282-4.234375.070313-8.34375 1.441406-11.773438 3.925782-3.480468-2.449219-7.609374-3.8125-11.863281-3.925782-9.128906 0-11.519531 5.632813-22.269531 8.363282-23.554688-8.023438-52.226562-45.570313-52.226562-98.644532 0-49.496094 16.640624-65.109375 36.183593-69.121094 16.554688 3.925782 23.722657 15.871094 34.046875 15.871094 2.101563-.039062 4.179688-.445312 6.144532-1.195312l7.59375-2.21875 46.507812-13.3125c4.558594.347656 9.042969 1.351562 13.3125 2.988281 16.210938 6.316406 28.839844 23.722656 28.839844 66.988281zm0 0" fill="#e8edfc"/><path d="m454.324219 342.292969c-20.148438 15.785156-53.152344 7.304687-53.152344 7.304687s-.359375-34.082031 19.785156-49.867187c20.148438-15.789063 53.15625-7.304688 53.15625-7.304688s.382813 34.082031-19.789062 49.867188zm0 0" fill="#fff"/><path d="m93.910156 145.078125h59.734375c4.710938 0 8.53125 3.820313 8.53125 8.535156v8.53125c0 18.851563-15.28125 34.132813-34.132812 34.132813h-8.53125c-18.851563 0-34.136719-15.28125-34.136719-34.132813v-8.53125c0-4.714843 3.824219-8.535156 8.535156-8.535156zm0 0" fill="#fff"/><path d="m204.84375 145.078125h59.734375c4.710937 0 8.53125 3.820313 8.53125 8.535156v8.53125c0 18.851563-15.28125 34.132813-34.132813 34.132813h-8.53125c-18.851562 0-34.136718-15.28125-34.136718-34.132813v-8.53125c0-4.714843 3.820312-8.535156 8.535156-8.535156zm0 0" fill="#fff"/><path d="m162.175781 159.414062v2.730469c0 18.851563-15.28125 34.132813-34.132812 34.132813h-8.53125c-5.160157.050781-10.253907-1.152344-14.847657-3.496094 10.875-21.527344 33.425782-34.609375 57.511719-33.367188zm0 0" fill="#e8edfc"/><path d="m273.109375 159.925781v2.21875c0 18.851563-15.28125 34.132813-34.132813 34.132813h-8.53125c-7.550781.03125-14.890624-2.496094-20.824218-7.167969 9.644531-15.785156 28.332031-32.425781 63.488281-29.183594zm0 0" fill="#e8edfc"/><path d="m34.175781 486.414062v-51.203124c-.015625-28.347657 11.765625-55.425782 32.511719-74.742188h-.082031c-25.429688-19.804688-30.550781-57.011719-15.363281-87.390625 13.996093-27.980469 10.777343-64.519531 9.167968-76.800781h-.632812c-9.414063-.027344-17.039063-7.652344-17.066406-17.066406.070312-9.394532 7.667968-16.996094 17.066406-17.066407 0-4.777343 0-11.851562 0-12.796875.972656-73.992187 58.457031-134.910156 132.265625-140.171875-4.214844-.367187-8.472657-.628906-12.800781-.628906-4.007813 0-7.933594.167969-11.859376.511719-74.203124 4.847656-132.207031 65.933594-133.207031 140.289062v12.796875c-9.394531.070313-16.996093 7.671875-17.066406 17.066407.027344 9.414062 7.652344 17.039062 17.066406 17.066406h.632813c1.613281 12.28125 4.828125 48.820312-9.164063 76.800781-15.191406 30.378906-10.070312 67.585937 15.359375 87.382813h.085938c-20.753906 19.316406-32.53125 46.398437-32.511719 74.75v51.203124c.027344 9.414063 7.652344 17.035157 17.066406 17.066407h25.597657c-9.414063-.03125-17.039063-7.652344-17.066407-17.066407zm0 0" fill="#fff"/><path d="m25.644531 149.347656c.136719-39.785156 16.332031-77.824218 44.910157-105.5 29.164062-28.167968 68.140624-43.8867185 108.6875-43.8359372v17.0664062c-36.097657-.054687-70.804688 13.925781-96.785157 38.988281-25.28125 24.464844-39.617187 58.097656-39.746093 93.28125zm0 0" fill="#fff"/><g fill="#428dff"><path d="m221.910156 469.347656c0 4.710938-3.820312 8.53125-8.535156 8.53125-4.710938 0-8.53125-3.820312-8.53125-8.53125 0-4.714844 3.820312-8.535156 8.53125-8.535156 4.714844 0 8.535156 3.820312 8.535156 8.535156zm0 0"/><path d="m358.445312 366.945312c0 4.714844-3.820312 8.535157-8.535156 8.535157-4.710937 0-8.535156-3.820313-8.535156-8.535157 0-4.710937 3.824219-8.53125 8.535156-8.53125 4.714844 0 8.535156 3.820313 8.535156 8.53125zm0 0"/><path d="m55.246094 76.546875c-1.980469-1.246094-4.394532-1.601563-6.652344-.984375-2.253906.617188-4.148438 2.15625-5.21875 4.238281-1.035156 2.121094-1.261719 4.546875-.640625 6.824219l.683594 1.511719c.28125.5.628906.960937 1.03125 1.363281.328125.433594.71875.808594 1.164062 1.121094.46875.3125.960938.597656 1.464844.851562 2.070313.902344 4.386719 1.058594 6.554687.433594 1.023438-.347656 1.96875-.890625 2.789063-1.59375 2.367187-2.160156 3.402344-5.421875 2.707031-8.550781-.316406-1.058594-.816406-2.050781-1.484375-2.925781-.644531-.910157-1.460937-1.6875-2.398437-2.289063zm0 0"/><path d="m474.71875 327.136719c5.0625-11.617188 7.761719-24.128907 7.9375-36.804688-.042969-3.859375-2.671875-7.210937-6.410156-8.171875-1.511719-.378906-37.367188-9.320312-60.585938 8.855469-4.132812 3.28125-7.707031 7.207031-10.582031 11.632813-3.421875-9.371094-8.210937-18.183594-14.207031-26.15625-2.828125-3.769532-8.175782-4.535157-11.949219-1.707032-3.769531 2.828125-4.53125 8.175782-1.703125 11.949219 10.253906 13.355469 16.097656 29.574219 16.722656 46.402344-.261718 1.621093-.484375 3.164062-.65625 4.589843l-1.9375-1.277343c-10.035156-7.777344-22.34375-12.050781-35.039062-12.171875-2.679688.007812-5.359375.15625-8.027344.445312 3.578125-18.84375.835938-38.339844-7.800781-55.464844-8.859375-20.695312-11.84375-43.429687-8.625-65.707031 10.699219-3.28125 18.015625-13.148437 18.054687-24.339843-.019531-10.820313-6.859375-20.453126-17.066406-24.046876 0-2.667968 0-5.179687 0-5.816406-1.292969-83.605468-69.992188-150.398437-153.601562-149.3359372-40.546876-.0507813-79.523438 15.6679692-108.6875 43.8359372l-6.1875 6.589844c-1.632813 1.660156-2.484376 3.9375-2.34375 6.265625.140624 2.328125 1.261718 4.484375 3.085937 5.933594 3.566406 2.804687 8.660156 2.503906 11.871094-.699219l5.476562-5.871094c25.980469-25.0625 60.6875-39.042968 96.785157-38.988281 74.1875-1.074219 135.253906 58.085937 136.535156 132.269531v4.265625h-1.707032c-.128906-.8125-.238281-1.554687-.382812-2.425781-.554688-2.652344-1.1875-5.296875-1.996094-8.222656-5.914062-13.613282-13.847656-26.257813-23.535156-37.496094-1.765625-2.15625-4.484375-3.289062-7.253906-3.023438-95.308594 7.835938-127.148438-44.714843-128.417969-46.933593-1.6875-2.953125-4.976563-4.609375-8.355469-4.207031-3.378906.386718-6.214844 2.726562-7.226562 5.976562-.480469 1.515625-12.253906 37.375-79.199219 53.878906-3.257813.800782-5.742187 3.441406-6.347656 6.742188l-4.472657 24.34375c-.785156 2.96875-1.554687 5.972656-2.269531 9.582031-.101562.589844-.1875 1.160156-.28125 1.707031h-1.621093v-4.265625c.121093-10.679687 1.503906-21.304687 4.113281-31.660156.933593-4.496094-1.695313-8.96875-6.078125-10.339844-2.203125-.675781-4.59375-.398437-6.582032.769531-1.992187 1.167969-3.398437 3.117188-3.886718 5.371094-2.957032 11.753906-4.511719 23.816406-4.632813 35.9375v5.800782c-3.566406 1.210937-6.804687 3.238281-9.457031 5.914062-4.90625 4.757812-7.65625 11.316406-7.609375 18.148438.039063 11.191406 7.355469 21.058593 18.054687 24.339843 3.21875 22.277344.234376 45.011719-8.625 65.707031-15.988281 29.710938-11.71875 66.242188 10.691407 91.46875-18.480469 20.402344-28.69531275 46.957032-28.6562502 74.484376v51.203124c0 14.136719 11.4609372 25.597657 25.6015622 25.597657h307.199219c5.855469-.042969 11.511719-2.121094 16-5.878907 5.988281 3.582032 12.78125 5.605469 19.753906 5.878907 10.359375.558593 20.644532-2.039063 29.492188-7.457031 4.234375-3.480469 10.339844-3.480469 14.574218 0 8.847657 5.417968 19.132813 8.015624 29.492188 7.457031 28.492188 0 69.886719-42.417969 69.886719-108.882813 0-43.105468-12.253907-68.097656-37.324219-75.992187zm-48.496094-22.6875c11.574219-9.082031 29.269532-8.277344 38.921875-6.992188-1.042969 9.6875-4.503906 27.042969-16.085937 36.125-11.386719 7.0625-25.015625 9.582031-38.175782 7.0625.09375-1.703125.125-3.632812.117188-5.664062 1.304688-11.65625 6.699219-22.476563 15.222656-30.53125zm-97.089844 25.660156c-6.894531 3.488281-12.773437 8.695313-17.066406 15.121094-9.492187-6.832031-20.007812-12.109375-31.15625-15.636719-.84375-2.128906-2.515625-3.828125-4.632812-4.707031l-36.234375-14.507813c-7.492188-2.980468-16.046875-.328125-20.539063 6.367188l-6.128906 9.238281v-31.296875c46.542969-9.957031 84.035156-44.359375 97.949219-89.875h3.179687c-3.042968 24.558594.660156 49.484375 10.710938 72.097656 8.464844 16.46875 9.878906 35.667969 3.917968 53.199219zm-149.890624 47.078125-17.066407-25.601562v-53.972657c5.664063.675781 11.363281 1.03125 17.066407 1.066407 5.707031-.035157 11.402343-.390626 17.066406-1.066407v53.972657zm-118.832032-192.855469c-.410156-3.710937-.621094-7.445312-.632812-11.179687 0-2.148438.078125-4.144532.203125-6.089844l16.863281-6.382812v1.464843c.027344 23.554688 19.113281 42.640625 42.667969 42.667969h8.53125c23.554687-.027344 42.640625-19.113281 42.667969-42.667969v-8.53125c-.027344-.632812-.089844-1.261719-.1875-1.886719 5.386718-3.113281 12.003906-3.195312 17.46875-.214843-.117188.695312-.1875 1.398437-.214844 2.101562v8.53125c.027344 23.554688 19.113281 42.640625 42.667968 42.667969h8.53125c23.554688-.027344 42.640626-19.113281 42.667969-42.667969v-1.464843l16.859375 6.382812c.121094 1.910156.207032 3.90625.207032 6.089844-.011719 3.707031-.222657 7.410156-.625 11.09375-.390626 3.414062-.953126 6.828125-1.652344 10.078125-11.132813 44.503906-47.824219 78.019531-93.152344 85.085937-15.898438 2.867188-32.179688 2.867188-48.074219 0-45.449219-7.027344-82.203125-40.71875-93.152343-85.382812-.703126-3.238282-1.253907-6.46875-1.644532-9.695313zm93.234375-30.71875v8.53125c0 14.140625-11.460937 25.601563-25.601562 25.601563h-8.53125c-14.140625 0-25.601563-11.460938-25.601563-25.601563v-8.53125zm110.933594 0v8.53125c0 14.140625-11.460937 25.601563-25.601563 25.601563h-8.53125c-14.140624 0-25.601562-11.460938-25.601562-25.601563v-8.53125zm-95.890625 238.472657-22.46875 28.082031-48.484375-83.089844 27.050781-10.828125zm65.015625-65.84375 27.050781 10.820312-48.484375 83.105469-22.46875-28.082031zm90.605469-138.496094h-9.523438c.070313-.53125.199219-1.042969.257813-1.578125.476562-4.324219.722656-8.667969.734375-13.015625 0-.851563-.042969-1.636719-.058594-2.472656h8.589844c2.304687-.003907 4.507812.941406 6.085937 2.621093 1.585938 1.554688 2.46875 3.691407 2.449219 5.910157 0 4.714843-3.820312 8.535156-8.535156 8.535156zm-260.683594-41.984375v-.078125l3.542969-19.292969c47.835937-13.019531 69.800781-36 79.359375-50.6875 16.007812 17.84375 55.269531 49.117187 131.277344 44.101563 7.078124 8.410156 12.964843 17.757812 17.492187 27.773437l-20.941406-7.933594c-2.863281-2.015625-6.277344-3.097656-9.777344-3.097656h-59.734375c-2.230469 0-4.4375.441406-6.492188 1.296875-11.597656-7.390625-26.429687-7.359375-37.992187.085938-2.121094-.914063-4.40625-1.382813-6.714844-1.382813h-59.734375c-3.492187.003906-6.898437 1.085937-9.753906 3.097656l-20.964844 7.945313c.101563-.394532.179688-.785156.289063-1.1875.050781-.207032.101562-.425782.144531-.640625zm-35.363281 27.367187c1.582031-1.601562 3.75-2.488281 6-2.449218h8.535156c0 .851562-.070313 1.605468-.070313 2.472656.015626 4.386718.261719 8.765625.742188 13.125.0625.496094.179688.972656.25 1.46875h-9.542969c-4.710937 0-8.53125-3.820313-8.53125-8.535156-.003906-2.300782.941407-4.503907 2.617188-6.082032zm5.0625 103.765625c10.027343-22.613281 13.714843-47.53125 10.65625-72.082031h3.234375c13.84375 45.542969 51.339844 79.964844 97.894531 89.875v31.296875l-6.125-9.1875c-4.496094-6.6875-13.039063-9.339844-20.53125-6.375l-36.242187 14.503906c-2.027344.851563-3.648438 2.453125-4.515626 4.472657-13.269531 4.152343-25.640624 10.769531-36.460937 19.507812-17.515625-19.953125-20.675781-48.730469-7.910156-72.011719zm-16.214844 209.519531v-51.203124c-.105469-41.089844 26.617187-77.441407 65.871094-89.597657l54.757812 93.867188c1.417969 2.429687 3.941407 4 6.75 4.207031h.621094c2.59375 0 5.046875-1.179688 6.664063-3.203125l18.9375-23.601563v78.0625h-145.066407c-4.714843 0-8.535156-3.820312-8.535156-8.53125zm170.667969 8.53125v-78.0625l18.933594 23.664063c1.621093 2.023437 4.074218 3.199219 6.664062 3.199219h.625c2.804688-.203125 5.332031-1.777344 6.75-4.207032l54.707031-93.78125c10.484375 3.296876 20.304688 8.417969 29.011719 15.121094-4.160156 13.683594-6.101562 27.949219-5.757812 42.25-1.082032 34.019532 11.519531 67.050782 34.984374 91.707032-.296874 0-.578124.109374-.851562.109374zm254.378906 0c-7.339844.535157-14.660156-1.253906-20.925781-5.121093-9.554688-6.550781-22.152344-6.550781-31.707031 0-6.265626 3.867187-13.585938 5.65625-20.925782 5.121093-5.996094-.472656-11.707031-2.757812-16.375-6.554687-.152344-.101563-.238281-.269531-.402344-.375l-.136718-.042969c-17.253906-12.816406-35.90625-42.777344-35.90625-84.84375 0-38.144531 9.632812-53.148437 22.65625-58.71875 5.691406-2.214844 11.773437-3.257812 17.875-3.0625 9.296875.160156 18.269531 3.414063 25.507812 9.25 5.46875 4.539063 12.207032 7.269532 19.292969 7.816406 2.171875-.046874 4.332031-.378906 6.417969-.984374 4.546875.644531 9.136718.972656 13.730468.984374 13.683594.542969 27.164063-3.464843 38.332032-11.394531 1.863281-1.488281 3.605468-3.121093 5.214844-4.878906 11.484374 1.765625 30.171874 9.523437 30.171874 60.988281 0 56.957032-34.203124 91.816406-52.820312 91.816406zm0 0"/><path d="m349.910156 401.078125c0-4.710937-3.820312-8.53125-8.535156-8.53125-4.710938 0-8.53125 3.820313-8.53125 8.53125 0 1.476563.109375 36.363281 9.386719 55.015625 2.105469 4.21875 7.234375 5.929688 11.453125 3.824219 4.214844-2.109375 5.929687-7.234375 3.820312-11.453125-5.285156-15.230469-7.855468-31.265625-7.59375-47.386719zm0 0"/></g></svg>