<?xml version="1.0" encoding="iso-8859-1"?>
<!-- Generator: Adobe Illustrator 19.0.0, SVG Export Plug-In . SVG Version: 6.00 Build 0)  -->
<svg version="1.1" id="Capa_1" xmlns="http://www.w3.org/2000/svg" xmlns:xlink="http://www.w3.org/1999/xlink" x="0px" y="0px"
	 viewBox="0 0 511.926 511.926" style="enable-background:new 0 0 511.926 511.926;" xml:space="preserve">
<g>
	<g transform="translate(1 1)">
		<g>
			<path style="fill:#E3E7F2;" d="M81.645,354.991l-30.373,30.373c-6.635,5.789-7.407,15.827-1.736,22.563l52.069,52.069
				c6.736,5.671,16.774,4.899,22.563-1.736l30.373-30.373l18.224-18.224l13.599,13.599c6.072,6.727,5.595,17.089-1.07,23.229
				l-42.523,42.523c-15.323,16.719-41.276,17.915-58.072,2.675l-66.476-66.477c-15.24-16.795-14.045-42.748,2.675-58.072
				l42.523-42.523c6.14-6.665,16.502-7.142,23.229-1.07l13.219,13.219L81.645,354.991z"/>
			<path style="fill:#E3E7F2;" d="M427.901,154.527l30.373-30.373c6.635-5.789,7.407-15.827,1.736-22.563l-52.069-52.069
				c-6.736-5.671-16.774-4.899-22.563,1.736l-30.373,30.373l-18.224,18.224l-13.219-13.219c-6.072-6.727-5.595-17.089,1.07-23.229
				l42.523-42.523c15.323-16.719,41.276-17.915,58.072-2.675l66.476,66.476c15.24,16.795,14.044,42.748-2.675,58.072l-42.523,42.523
				c-6.14,6.665-16.502,7.142-23.229,1.07l-13.599-13.599L427.901,154.527z"/>
			<path style="fill:#E3E7F2;" d="M81.544,355.062l12.309-12.309c6.665-6.665,17.471-6.665,24.136,0l0.181,0.181
				c6.665,6.665,6.665,17.471,0,24.136l-12.309,12.309c-6.665,6.665-17.471,6.665-24.136,0l-0.181-0.181
				C74.879,372.533,74.879,361.727,81.544,355.062z"/>
			<path style="fill:#E3E7F2;" d="M105.868,379.375l12.309-12.309c6.665-6.665,17.471-6.665,24.136,0l0.181,0.181
				c6.665,6.665,6.665,17.471,0,24.136l-12.309,12.309c-6.665,6.665-17.471,6.665-24.136,0l-0.181-0.181
				C99.203,396.846,99.203,386.04,105.868,379.375z"/>
			<path style="fill:#E3E7F2;" d="M130.18,403.69l12.309-12.309c6.665-6.665,17.471-6.665,24.136,0l0.181,0.181
				c6.665,6.665,6.665,17.471,0,24.136l-12.309,12.309c-6.665,6.665-17.471,6.665-24.136,0l-0.181-0.181
				C123.515,421.161,123.515,410.355,130.18,403.69z"/>
			<path style="fill:#E3E7F2;" d="M379.364,105.88l-12.309,12.309c-6.665,6.665-17.471,6.665-24.136,0l-0.181-0.181
				c-6.665-6.665-6.665-17.471,0-24.136l12.309-12.309c6.665-6.665,17.471-6.665,24.136,0l0.181,0.181
				C386.029,88.409,386.029,99.215,379.364,105.88z"/>
			<path style="fill:#E3E7F2;" d="M403.667,130.126l-12.309,12.309c-6.665,6.665-17.471,6.665-24.136,0l-0.181-0.181
				c-6.665-6.665-6.665-17.471,0-24.136l12.309-12.309c6.665-6.665,17.471-6.665,24.136,0l0.181,0.181
				C410.332,112.655,410.332,123.461,403.667,130.126z"/>
			<path style="fill:#E3E7F2;" d="M428.001,154.447l-12.309,12.309c-6.665,6.665-17.471,6.665-24.136,0l-0.181-0.181
				c-6.665-6.665-6.665-17.471,0-24.136l12.309-12.309c6.665-6.665,17.471-6.665,24.136,0l0.181,0.181
				C434.665,136.976,434.665,147.783,428.001,154.447z"/>
		</g>
		<g>
			<path style="fill:#A4C2F7;" d="M489.032,142.735l-42.496,42.581c-6.173,6.666-16.561,7.122-23.296,1.024l-9.984-9.984
				c4.069-0.411,7.869-2.22,10.752-5.12l42.496-42.496c16.731-15.715,17.608-41.999,1.963-58.795L406.856,8.421
				c6.952,1.384,13.337,4.799,18.347,9.813l66.475,66.475C506.899,101.489,505.718,127.41,489.032,142.735z"/>
			<path style="fill:#A4C2F7;" d="M186.355,423.226c6.098,6.735,5.641,17.122-1.024,23.296l-42.581,42.496
				c-15.325,16.685-41.247,17.867-58.027,2.645l-4.437-4.437c14.521,2.988,29.565-1.609,39.936-12.203l42.496-42.496
				c4.623-4.477,6.367-11.157,4.523-17.323l5.547-5.547L186.355,423.226z"/>
		</g>
	</g>
	<path style="fill:#428DFF;" d="M13.188,432.245l66.475,66.475c8.671,8.578,20.412,13.332,32.608,13.204
		c14.121-0.112,27.62-5.823,37.533-15.879l42.525-42.521c8.06-7.816,10.052-19.988,4.903-29.965l226.336-226.331
		c3.462,1.911,7.349,2.919,11.304,2.93c0.4,0,0.792-0.009,1.192-0.029c6.597-0.329,12.832-3.118,17.475-7.817l42.525-42.521
		c20.038-18.661,21.233-50.005,2.675-70.138l-66.475-66.475c-20.131-18.566-51.483-17.371-70.142,2.675l-42.526,42.52
		c-7.9,7.675-9.98,19.555-5.158,29.458L87.853,314.421c-3.691-1.931-7.829-2.847-11.99-2.652
		c-6.597,0.329-12.832,3.118-17.475,7.817l-42.525,42.521C-4.175,380.768-5.37,412.112,13.188,432.245z M71.603,379.101
		c1.268,2.704,2.988,5.172,5.086,7.298c4.484,4.471,10.479,7.102,16.805,7.377c0.314,6.376,2.985,12.409,7.495,16.928
		c4.489,4.461,10.481,7.087,16.804,7.364c0.312,6.381,2.984,12.418,7.496,16.941c2.081,2.039,4.499,3.702,7.147,4.918
		l-13.297,13.299c-1.667,1.72-3.885,2.799-6.267,3.05c-1.534,0.186-3.074-0.292-4.233-1.313l-52.067-52.07
		c-1.022-1.159-1.501-2.699-1.317-4.233c0.255-2.378,1.334-4.592,3.05-6.258L71.603,379.101z M166.605,381.457
		c-3.046-1.467-6.354-2.313-9.731-2.489c-0.169-3.384-1.019-6.7-2.499-9.747l214.867-214.863c3.054,1.473,6.372,2.322,9.758,2.496
		c0.185,3.371,1.034,6.673,2.498,9.715L166.605,381.457z M112.896,398.474c-3.325-3.337-3.325-8.734,0-12.071l12.308-12.308
		c1.581-1.59,3.732-2.482,5.975-2.479c2.354,0.012,4.606,0.961,6.258,2.637c1.601,1.6,2.5,3.77,2.5,6.033s-0.899,4.433-2.5,6.033
		v0.004l-12.308,12.313c-1.637,1.614-3.852,2.505-6.151,2.474C116.681,401.08,114.49,400.131,112.896,398.474z M344.941,130.058
		c3.045,1.468,6.351,2.315,9.727,2.492c0.169,3.384,1.02,6.698,2.502,9.745L142.305,357.156c-3.046-1.467-6.354-2.313-9.731-2.489
		c-0.169-3.382-1.018-6.695-2.498-9.741L344.941,130.058z M374.105,125.198v-0.004l12.325-12.317
		c1.594-1.604,3.764-2.503,6.025-2.496c2.339,0.011,4.573,0.97,6.192,2.658c3.332,3.333,3.335,8.734,0.009,12.071l-12.317,12.308
		v0.004c-1.637,1.615-3.852,2.507-6.151,2.475c-2.299-0.031-4.49-0.983-6.082-2.642c-1.6-1.597-2.499-3.765-2.5-6.025
		s0.896-4.429,2.494-6.028L374.105,125.198z M398.405,161.562c-3.325-3.335-3.325-8.732,0-12.067l12.325-12.317
		c1.594-1.604,3.764-2.503,6.025-2.496c2.341,0.01,4.576,0.973,6.192,2.667c1.601,1.599,2.5,3.769,2.5,6.031s-0.899,4.432-2.5,6.031
		l-12.308,12.312c-1.641,1.605-3.855,2.491-6.15,2.461C402.192,164.154,400.003,163.21,398.405,161.562z M439.942,132.42
		c-1.268-2.706-2.988-5.177-5.087-7.305c-4.511-4.382-10.493-6.925-16.779-7.131c-0.264-6.464-2.949-12.593-7.521-17.169
		c-4.513-4.379-10.494-6.921-16.778-7.131c-0.264-6.465-2.949-12.595-7.521-17.173c-2.082-2.038-4.499-3.7-7.147-4.916
		l13.305-13.305c1.665-1.717,3.88-2.795,6.258-3.046c1.534-0.184,3.073,0.293,4.233,1.313l52.075,52.067
		c2.186,3.43,1.435,7.956-1.742,10.496L439.942,132.42z M349.805,100.895l12.317-12.308c1.582-1.589,3.733-2.48,5.975-2.475
		c2.35,0.009,4.6,0.955,6.25,2.629c3.331,3.334,3.335,8.736,0.009,12.075l-12.317,12.308c-3.39,3.302-8.804,3.268-12.151-0.078
		C346.54,109.7,346.504,104.285,349.805,100.895z M330.407,105.547c-0.22,4.283,0.637,8.553,2.494,12.419L117.936,332.934
		c-3.816-1.735-7.99-2.541-12.178-2.351l-4.97-4.965l224.843-224.846L330.407,105.547z M100.921,349.79
		c1.594-1.604,3.764-2.503,6.025-2.496c2.341,0.01,4.576,0.973,6.192,2.667c1.601,1.598,2.5,3.767,2.5,6.029s-0.899,4.431-2.5,6.029
		v0.004l-12.308,12.313c-1.64,1.608-3.855,2.494-6.151,2.463c-2.297-0.031-4.486-0.978-6.082-2.63c-1.601-1.599-2.5-3.769-2.5-6.031
		s0.899-4.432,2.5-6.031L100.921,349.79z M161.738,410.624l-12.221,12.221l-0.013,0.009l-0.087,0.088
		c-3.391,3.306-8.81,3.27-12.156-0.081c-3.346-3.351-3.375-8.77-0.065-12.156l12.308-12.308c1.581-1.59,3.732-2.482,5.975-2.479
		c2.354,0.012,4.606,0.961,6.258,2.638C165.063,401.89,165.063,407.287,161.738,410.624z M178.648,393.547l214.879-214.875
		c3.447,1.7,7.235,2.595,11.078,2.618c0.478,0,0.935-0.111,1.409-0.138l4.748,4.747L185.913,410.745l-4.772-4.772
		C181.364,401.687,180.507,397.415,178.648,393.547L178.648,393.547z M331.663,70.441l42.525-42.521
		c12.005-13.363,32.536-14.557,46.008-2.675l66.475,66.475c11.878,13.473,10.684,33.999-2.675,46.004l-42.525,42.521
		c-1.637,1.685-3.846,2.697-6.192,2.838c-1.83,0.134-3.632-0.507-4.966-1.766l-1.449-1.448l-0.001-0.002l-0.002-0.001l-6.116-6.115
		l12.18-12.18l0.012-0.009l30.367-30.375c9.994-9.105,10.771-24.567,1.742-34.629L414.971,44.49
		c-4.672-4.56-11.106-6.848-17.608-6.263c-6.444,0.552-12.479,3.388-17.017,7.996l-30.292,30.292l-12.277,12.269l-7.181-7.181
		C327.909,78.196,328.379,73.277,331.663,70.441L331.663,70.441z M27.93,374.174l42.525-42.521c1.638-1.685,3.846-2.697,6.192-2.837
		c1.831-0.135,3.634,0.508,4.966,1.771l7.19,7.185L76.53,350.036l-0.019,0.023l-30.272,30.268c-4.612,4.537-7.45,10.574-8,17.021
		c-0.588,6.505,1.702,12.941,6.267,17.613l52.067,52.067c4.201,4.118,9.868,6.396,15.75,6.333c0.617,0,1.242-0.025,1.858-0.071
		c6.446-0.552,12.484-3.387,17.025-7.996l30.247-30.255l0.045-0.037l12.269-12.273l7.565,7.565
		c2.687,3.407,2.217,8.326-1.067,11.163l-42.525,42.521c-12.007,13.359-32.534,14.553-46.008,2.675l-66.475-66.475
		C13.377,406.706,14.57,386.179,27.93,374.174z"/>
</g>
<g>
</g>
<g>
</g>
<g>
</g>
<g>
</g>
<g>
</g>
<g>
</g>
<g>
</g>
<g>
</g>
<g>
</g>
<g>
</g>
<g>
</g>
<g>
</g>
<g>
</g>
<g>
</g>
<g>
</g>
</svg>
